<svg id="LOGO" xmlns="http://www.w3.org/2000/svg" viewBox="0 0 1540.3 711.77"><defs><style>.cls-1{fill:#898989;}.cls-2{fill:#ffa300;}</style></defs><title>LOGOTIPO 2</title><path class="cls-1" d="M6594.55,7029.37q19.62-12,30.51-34.17t10.89-51.07q0-28.95-10.78-51.07t-30.42-34.16q-19.62-12-45.52-12H6445.29a14.63,14.63,0,0,0-14.63,14.63v307.73a14.63,14.63,0,0,0,14.63,14.63H6458a14.63,14.63,0,0,0,14.63-14.63V7056a14.63,14.63,0,0,1,14.64-14.63h38.29a14.64,14.64,0,0,1,13.36,8.66l56,125.13a14.65,14.65,0,0,0,13.36,8.65h17.25a14.63,14.63,0,0,0,13.26-20.83l-52.91-113.18a14.53,14.53,0,0,1,5.95-18.86C6592.72,7030.46,6593.64,7029.93,6594.55,7029.37Zm-122-122.95a14.63,14.63,0,0,1,14.64-14.63h63.66a35.8,35.8,0,0,1,21.27,6.49q9.14,6.48,14.18,18.41t5,27.44q0,15.52-5,27.45T6572,6990a35.9,35.9,0,0,1-21.16,6.49h-63.66a14.63,14.63,0,0,1-14.64-14.63Z" transform="translate(-6429.35 -6843.62)"/><path class="cls-1" d="M6729.13,6847.09h-5.71a14.63,14.63,0,0,0-14.63,14.63v307.5a14.63,14.63,0,0,0,14.63,14.63h162.67a14.63,14.63,0,0,0,14.63-14.63v-15.67a14.63,14.63,0,0,0-14.63-14.63H6765.34a14.63,14.63,0,0,1-14.63-14.64v-70.55a14.64,14.64,0,0,1,14.63-14.64h98.15a14.63,14.63,0,0,0,14.63-14.63v-15.67a14.63,14.63,0,0,0-14.63-14.63h-98.15a14.63,14.63,0,0,1-14.63-14.63v-72.87a14.63,14.63,0,0,1,14.63-14.64h120.75a14.63,14.63,0,0,0,14.63-14.63v-15.67a14.63,14.63,0,0,0-14.63-14.63h-157Z" transform="translate(-6429.35 -6843.62)"/><path class="cls-1" d="M7008.49,6927.58q7.61-18,21.37-27.91t32.06-10a52.58,52.58,0,0,1,25.48,6.72,65.84,65.84,0,0,1,21.48,19.11,77.24,77.24,0,0,1,10.2,18.9,14.43,14.43,0,0,0,13.59,9.24h13.79a14.68,14.68,0,0,0,14-18.95,132.88,132.88,0,0,0-15.21-33.63q-14.49-22.69-36.06-35.08a93.27,93.27,0,0,0-47.27-12.39q-31,0-54.56,15.63t-36.47,44.12q-12.95,28.48-13,66v92.41q0,37.53,13,66t36.47,44q23.54,15.52,54.56,15.51a92.75,92.75,0,0,0,47.06-12.39q21.59-12.39,36.17-35.08a132.16,132.16,0,0,0,15.3-33.62,14.68,14.68,0,0,0-14-19h-13.58a14.58,14.58,0,0,0-13.75,9.71,73,73,0,0,1-10.24,19.47,61.66,61.66,0,0,1-21.37,18.53,55.5,55.5,0,0,1-25.59,6.26q-18.29,0-32.06-9.85t-21.37-27.91q-7.6-18.06-7.6-41.69v-92.41Q7000.89,6945.53,7008.49,6927.58Z" transform="translate(-6429.35 -6843.62)"/><path class="cls-1" d="M7374,6859q-23.85-15.41-55.08-15.4t-55.07,15.4q-23.84,15.4-36.89,43.54t-13,65.2v95.42q0,37.07,13,65.2t36.89,43.54q23.83,15.4,55.07,15.4t55.08-15.4q23.84-15.41,36.88-43.54t13.05-65.2v-95.42q0-37-13.05-65.2T7374,6859Zm7,205.78q0,22.71-7.7,40t-21.79,26.63q-14.07,9.38-32.57,9.38t-32.57-9.38q-14.07-9.37-21.78-26.63t-7.71-40v-98.66q0-22.7,7.71-40t21.78-26.64q14.07-9.37,32.57-9.38t32.57,9.38q14.09,9.38,21.79,26.64t7.7,40Z" transform="translate(-6429.35 -6843.62)"/><path class="cls-1" d="M7641.19,6859q-23.85-15.41-55.07-15.4T7531,6859q-23.84,15.4-36.88,43.54t-13.05,65.2v95.42q0,37.07,13.05,65.2t36.88,43.54q23.84,15.4,55.08,15.4t55.07-15.4q23.84-15.41,36.89-43.54t13.05-65.2v-95.42q0-37-13.05-65.2T7641.19,6859Zm7,205.78q0,22.71-7.71,40t-21.78,26.63q-14.08,9.38-32.57,9.38t-32.57-9.38q-14.09-9.37-21.79-26.63t-7.7-40v-98.66q0-22.7,7.7-40t21.79-26.64q14.07-9.37,32.57-9.38t32.57,9.38q14.07,9.38,21.78,26.64t7.71,40Z" transform="translate(-6429.35 -6843.62)"/><path class="cls-1" d="M7960.62,7054.38a74.61,74.61,0,0,0-20.14-28.6q-1.77-1.56-3.65-2.95a14.77,14.77,0,0,1-.06-23.7c.95-.74,1.88-1.51,2.79-2.3a66.51,66.51,0,0,0,18.18-25.95,88,88,0,0,0,6-32.54q0-28.24-9.66-48.64a69.86,69.86,0,0,0-29.18-31.49q-19.53-11.13-48.5-11.12H7773.25a14.63,14.63,0,0,0-14.63,14.63v307.5a14.63,14.63,0,0,0,14.63,14.63h106.61q26.51,0,46.44-11.35a76.14,76.14,0,0,0,30.62-32.19q10.68-20.85,10.69-48.18v-.69A97.21,97.21,0,0,0,7960.62,7054.38Zm-91.86-163.52q26.31,0,39.46,12.51t13.15,37.75q0,24.09-11.82,36.37t-35,12.27H7815a14.64,14.64,0,0,1-14.64-14.63V6905.5a14.64,14.64,0,0,1,14.64-14.64Zm56.52,197.1q0,24.79-14.59,38.45t-46.45,13.67H7815a14.64,14.64,0,0,1-14.64-14.64V7047a14.64,14.64,0,0,1,14.64-14.63h59.55q17.67,0,29,6.6a39,39,0,0,1,16.54,18.87q5.23,12.28,5.24,29.42Z" transform="translate(-6429.35 -6843.62)"/><path class="cls-2" d="M6484.48,7492.74a66.15,66.15,0,0,0-14.21-5.22l-.71-.16-.71-.17-.48-.12-.49-.12a85.51,85.51,0,0,1-11.37-3.47,16.36,16.36,0,0,1-6.83-5.18q-2.73-3.49-2.74-9.62v-.08q0-8.9,5.32-13.75t14.92-4.85a24.93,24.93,0,0,1,10.66,2.49,42.18,42.18,0,0,1,10.67,7.46l7.47-13.21a54.12,54.12,0,0,0-9.31-6.9,42.47,42.47,0,0,0-9.6-4.11,35.74,35.74,0,0,0-9.89-1.39q-10.52,0-18,4.08a26.83,26.83,0,0,0-11.38,11.87q-3.89,7.78-3.89,18.8v.08q0,12.56,4.18,19.37t10.09,9.38a83.6,83.6,0,0,0,15.3,4.61l1,.24a1,1,0,0,0,.42.09,1,1,0,0,1,.42.08,60.69,60.69,0,0,1,10.4,3.22,15.4,15.4,0,0,1,6.58,5.38q2.53,3.63,2.54,9.83v.08q0,8.73-5.6,13.5t-15.79,4.77a33.39,33.39,0,0,1-14-2.93,36.5,36.5,0,0,1-11.8-8.81l-8.18,12.72a48.83,48.83,0,0,0,9.83,8.16,41.89,41.89,0,0,0,11.31,4.89,49,49,0,0,0,12.82,1.63q10.89,0,18.59-4a27.45,27.45,0,0,0,11.76-11.75q4.06-7.71,4.06-18.56v-.16q0-11.66-3.83-18.39A24.1,24.1,0,0,0,6484.48,7492.74Z" transform="translate(-6429.35 -6843.62)"/><path class="cls-2" d="M6555.78,7473.57a20.73,20.73,0,0,0-14.31-5.3,24.91,24.91,0,0,0-15.2,4.65q-6.32,4.65-9.64,13.54t-3.32,21.45v9.55q0,12.06,3.45,20.59a27.43,27.43,0,0,0,10,12.93,27.79,27.79,0,0,0,15.85,4.4,26.19,26.19,0,0,0,12.44-3.3,37,37,0,0,0,11.15-9.34l-8.64-10.93a23,23,0,0,1-7,5.71,17,17,0,0,1-7.93,2q-8.05,0-12.43-5.63c-2.82-3.61-4.24-8.78-4.35-15.41H6568V7513q0-14-3.13-24.06T6555.78,7473.57Zm-29.88,31.57c.22-6.62,1.52-11.89,4-15.66a13.07,13.07,0,0,1,11.56-6.2q6.12,0,9.77,5.75t4.22,16.11Z" transform="translate(-6429.35 -6843.62)"/><path class="cls-2" d="M6624.89,7469.94a20,20,0,0,0-8.28-1.67,16.25,16.25,0,0,0-10.83,4.2,28.14,28.14,0,0,0-6.64,8.87v-11.85H6586v84.67h13.14v-53.59q0-7.74,3.45-12.11a11.66,11.66,0,0,1,9.7-4.37,13,13,0,0,1,6.12,1.39,11.69,11.69,0,0,1,4.38,4.08l8.57-14.68A18.26,18.26,0,0,0,6624.89,7469.94Z" transform="translate(-6429.35 -6843.62)"/><polygon class="cls-2" points="235.97 686.32 219.6 625.88 205.88 625.88 231.01 710.54 240.93 710.54 266.06 625.88 252.34 625.88 235.97 686.32"/><rect class="cls-2" x="278.95" y="591.95" width="13.15" height="16.64"/><rect class="cls-2" x="278.95" y="625.88" width="13.15" height="84.67"/><path class="cls-2" d="M6756.82,7489.48q4.2-5.38,11.79-5.39a15.59,15.59,0,0,1,7.93,2.21,20.78,20.78,0,0,1,6.64,6.28l9.47-10.77a25.87,25.87,0,0,0-6.12-7.34,26.67,26.67,0,0,0-8.28-4.61,29.93,29.93,0,0,0-9.83-1.59,27.69,27.69,0,0,0-15.62,4.28,26.88,26.88,0,0,0-9.9,12.44q-3.4,8.16-3.41,19.66v14q0,11.65,3.41,19.9a27.06,27.06,0,0,0,9.9,12.56,27.47,27.47,0,0,0,15.62,4.32,30.3,30.3,0,0,0,9.77-1.55,26.28,26.28,0,0,0,8.27-4.52,26.68,26.68,0,0,0,6.19-7.22l-9.47-11.58a21.09,21.09,0,0,1-6.57,6.68,14.9,14.9,0,0,1-8,2.37q-7.66,0-11.82-5.46t-4.16-15.5v-14Q6752.63,7494.86,6756.82,7489.48Z" transform="translate(-6429.35 -6843.62)"/><rect class="cls-2" x="377.8" y="625.88" width="13.15" height="84.67"/><rect class="cls-2" x="377.8" y="591.95" width="13.15" height="16.64"/><path class="cls-2" d="M6880.8,7472.55a28,28,0,0,0-29.77,0,26.67,26.67,0,0,0-9.44,12.48q-3.26,8.21-3.25,19.7v13.79q0,11.65,3.25,19.94a26.82,26.82,0,0,0,9.44,12.6,27.8,27.8,0,0,0,29.77,0,26.77,26.77,0,0,0,9.44-12.52q3.26-8.19,3.26-19.78v-14q0-11.5-3.26-19.7A26.6,26.6,0,0,0,6880.8,7472.55Zm-.45,46.21q0,9.87-3.77,15.34a13.15,13.15,0,0,1-21.33,0q-3.77-5.48-3.77-15.34v-14q0-9.87,3.77-15.25a13.25,13.25,0,0,1,21.33,0q3.78,5.39,3.77,15.25Z" transform="translate(-6429.35 -6843.62)"/><path class="cls-2" d="M6952.23,7505.79a46.34,46.34,0,0,0-11.95-2.36.92.92,0,0,0-.39-.09h-.39a5.31,5.31,0,0,0-.87-.08,3.56,3.56,0,0,1-.8-.08,74.45,74.45,0,0,1-8.25-1,9.88,9.88,0,0,1-4.8-2.28,6.56,6.56,0,0,1-1.9-5.14q0-5.79,3.35-8.69t10.05-2.89a24.54,24.54,0,0,1,9.51,2,41.4,41.4,0,0,1,9.89,6.11l7.92-12.15a43.88,43.88,0,0,0-8.31-6.08,38.42,38.42,0,0,0-9.05-3.63,40,40,0,0,0-10-1.22c-5.76,0-10.54,1-14.37,3a19.26,19.26,0,0,0-8.63,8.93q-2.91,6-2.9,14.93t3,13.78a15.4,15.4,0,0,0,7.5,6.57,42.09,42.09,0,0,0,11,2.4,4.73,4.73,0,0,1,.52,0,2.94,2.94,0,0,0,.51.05c.34.05.71.09,1.1.12s.75,0,1.09,0a82.85,82.85,0,0,1,8.9,1.26,10.88,10.88,0,0,1,5.28,2.73c1.42,1.36,2.12,3.4,2.12,6.12q0,6.12-3.89,9.18t-11.7,3.06a24,24,0,0,1-10.57-2.61,43,43,0,0,1-10.76-7.83l-7.79,12.15a39.12,39.12,0,0,0,8.31,7.34,35.16,35.16,0,0,0,9.7,4.41,40.93,40.93,0,0,0,11.11,1.46q9.41,0,15.63-3a20.06,20.06,0,0,0,9.31-9q3.09-6,3.09-15.13,0-10-3.35-15.33A16.5,16.5,0,0,0,6952.23,7505.79Z" transform="translate(-6429.35 -6843.62)"/><path class="cls-2" d="M7066.32,7440.54q-8-5-19.27-5h-29.7v118.6H7047q11.27,0,19.3-5a31.47,31.47,0,0,0,12.21-14.52q4.18-9.56,4.18-23v-33.6q0-13.46-4.18-23A31.48,31.48,0,0,0,7066.32,7440.54Zm2.9,71.78q0,12.39-5.71,19.21t-16.07,6.81h-16.95v-86.95h16.95q10.37,0,16.07,6.81t5.71,19.21Z" transform="translate(-6429.35 -6843.62)"/><path class="cls-2" d="M7143.19,7473.57a20.72,20.72,0,0,0-14.3-5.3,24.94,24.94,0,0,0-15.21,4.65q-6.32,4.65-9.63,13.54t-3.32,21.45v9.55q0,12.06,3.45,20.59a27.3,27.3,0,0,0,10,12.93,27.76,27.76,0,0,0,15.85,4.4,26.18,26.18,0,0,0,12.43-3.3,36.88,36.88,0,0,0,11.15-9.34l-8.63-10.93a23.13,23.13,0,0,1-7,5.71,17,17,0,0,1-7.92,2q-8.05,0-12.44-5.63c-2.81-3.61-4.24-8.78-4.34-15.41h42.1V7513q0-14-3.12-24.06T7143.19,7473.57Zm-29.87,31.57c.22-6.62,1.51-11.89,4-15.66a13.08,13.08,0,0,1,11.57-6.2q6.12,0,9.76,5.75t4.22,16.11Z" transform="translate(-6429.35 -6843.62)"/><path class="cls-2" d="M7224.06,7463.91a22.54,22.54,0,0,1,6.7-9.83,15.47,15.47,0,0,1,10.06-3.51,15.12,15.12,0,0,1,8,2.37,21.59,21.59,0,0,1,6.73,6.73,29.21,29.21,0,0,1,4.09,9.91h13.47a53.64,53.64,0,0,0-6.16-18.52,34.62,34.62,0,0,0-11.31-12.36,26.78,26.78,0,0,0-14.81-4.36,27.83,27.83,0,0,0-17.11,5.5,35.43,35.43,0,0,0-11.44,15.54,61.6,61.6,0,0,0-4.06,23.25v32.55a61.59,61.59,0,0,0,4.06,23.24q4.06,10,11.44,15.5a28,28,0,0,0,17.11,5.46,26.68,26.68,0,0,0,14.75-4.36,35.05,35.05,0,0,0,11.34-12.36,53.26,53.26,0,0,0,6.19-18.51h-13.47a28.8,28.8,0,0,1-4.09,10.27,20.17,20.17,0,0,1-6.7,6.53,15.87,15.87,0,0,1-8,2.2,15.6,15.6,0,0,1-10.06-3.46,22.31,22.31,0,0,1-6.7-9.83,41.7,41.7,0,0,1-2.38-14.68v-32.55A41.58,41.58,0,0,1,7224.06,7463.91Z" transform="translate(-6429.35 -6843.62)"/><path class="cls-2" d="M7331,7472.55a28,28,0,0,0-29.77,0,26.54,26.54,0,0,0-9.44,12.48q-3.26,8.21-3.26,19.7v13.79q0,11.65,3.26,19.94a26.69,26.69,0,0,0,9.44,12.6,27.8,27.8,0,0,0,29.77,0,26.84,26.84,0,0,0,9.44-12.52q3.26-8.19,3.25-19.78v-14q0-11.5-3.25-19.7A26.67,26.67,0,0,0,7331,7472.55Zm-.46,46.21q0,9.87-3.77,15.34a13.14,13.14,0,0,1-21.32,0q-3.78-5.48-3.77-15.34v-14q0-9.87,3.77-15.25a13.24,13.24,0,0,1,21.32,0q3.78,5.39,3.77,15.25Z" transform="translate(-6429.35 -6843.62)"/><path class="cls-2" d="M7393.34,7468.27a16.86,16.86,0,0,0-11.05,4.16,27.18,27.18,0,0,0-6.74,8.89v-11.83h-13.14v84.67h13.14v-53.59q0-7.83,3.52-12.15t10-4.33a12.16,12.16,0,0,1,10.31,4.9q3.67,4.89,3.68,13.87v51.3h13.14v-51.39q0-16.47-6-25.49A19.08,19.08,0,0,0,7393.34,7468.27Z" transform="translate(-6429.35 -6843.62)"/><path class="cls-2" d="M7476.17,7505.79a46.34,46.34,0,0,0-11.95-2.36.92.92,0,0,0-.39-.09h-.38a5.41,5.41,0,0,0-.87-.08,3.59,3.59,0,0,1-.81-.08,74.53,74.53,0,0,1-8.24-1,9.87,9.87,0,0,1-4.81-2.28,6.6,6.6,0,0,1-1.9-5.14q0-5.79,3.35-8.69t10.05-2.89a24.51,24.51,0,0,1,9.51,2,41.4,41.4,0,0,1,9.89,6.11l7.93-12.15a44.52,44.52,0,0,0-8.31-6.08,38.5,38.5,0,0,0-9.06-3.63,40,40,0,0,0-10-1.22q-8.62,0-14.37,3a19.26,19.26,0,0,0-8.63,8.93q-2.9,6-2.9,14.93t3,13.78a15.47,15.47,0,0,0,7.51,6.57,41.92,41.92,0,0,0,11,2.4,4.55,4.55,0,0,1,.52,0,2.94,2.94,0,0,0,.51.05c.35.05.71.09,1.1.12s.75,0,1.1,0a82.6,82.6,0,0,1,8.89,1.26,10.88,10.88,0,0,1,5.28,2.73q2.13,2,2.13,6.12,0,6.12-3.9,9.18t-11.69,3.06a24,24,0,0,1-10.57-2.61,42.78,42.78,0,0,1-10.76-7.83l-7.8,12.15a39.12,39.12,0,0,0,8.31,7.34,35.3,35.3,0,0,0,9.7,4.41,41,41,0,0,0,11.12,1.46q9.41,0,15.62-3a20,20,0,0,0,9.31-9q3.09-6,3.09-15.13,0-10-3.35-15.33A16.5,16.5,0,0,0,7476.17,7505.79Z" transform="translate(-6429.35 -6843.62)"/><path class="cls-2" d="M7519.45,7444.86H7506.3v24.63h-6.9v15h6.9v47.64q0,11.08,3.77,16.76t11.89,5.67h7.6v-15.83h-6.32a3.08,3.08,0,0,1-2.83-1.67,9.56,9.56,0,0,1-1-4.77v-47.8h10.11v-15h-10.11Z" transform="translate(-6429.35 -6843.62)"/><path class="cls-2" d="M7586.49,7469.94a20,20,0,0,0-8.28-1.67,16.23,16.23,0,0,0-10.82,4.2,28,28,0,0,0-6.64,8.87v-11.85H7547.6v84.67h13.15v-53.59q0-7.74,3.44-12.11a11.66,11.66,0,0,1,9.7-4.37,13.1,13.1,0,0,1,6.13,1.39,11.69,11.69,0,0,1,4.38,4.08l8.57-14.68A18.38,18.38,0,0,0,7586.49,7469.94Z" transform="translate(-6429.35 -6843.62)"/><path class="cls-2" d="M7644.26,7522.92q0,8-3.55,12.32t-10,4.32a11.81,11.81,0,0,1-10.09-4.85q-3.57-4.86-3.57-13.75v-51.47h-13.15V7521q0,16.4,6,25.41t17.1,9a16.28,16.28,0,0,0,11.41-4.24,23.74,23.74,0,0,0,5.8-8.24v11.26h13.08v-84.67h-13.08Z" transform="translate(-6429.35 -6843.62)"/><path class="cls-2" d="M7692.72,7489.48q4.19-5.38,11.79-5.39a15.61,15.61,0,0,1,7.93,2.21,20.86,20.86,0,0,1,6.63,6.28l9.47-10.77a25.87,25.87,0,0,0-6.12-7.34,26.67,26.67,0,0,0-8.28-4.61,29.91,29.91,0,0,0-9.82-1.59,27.75,27.75,0,0,0-15.63,4.28,26.8,26.8,0,0,0-9.89,12.44q-3.42,8.16-3.42,19.66v14q0,11.65,3.42,19.9a27,27,0,0,0,9.89,12.56,27.53,27.53,0,0,0,15.63,4.32,30.28,30.28,0,0,0,9.76-1.55,26.22,26.22,0,0,0,14.46-11.74l-9.47-11.58a21.09,21.09,0,0,1-6.57,6.68,14.89,14.89,0,0,1-8,2.37c-5.12,0-9.05-1.82-11.83-5.46s-4.15-8.81-4.15-15.5v-14Q7688.53,7494.86,7692.72,7489.48Z" transform="translate(-6429.35 -6843.62)"/><path class="cls-2" d="M7758.44,7489.48q4.19-5.38,11.79-5.39a15.59,15.59,0,0,1,7.93,2.21,20.89,20.89,0,0,1,6.64,6.28l9.47-10.77a25.87,25.87,0,0,0-6.12-7.34,26.67,26.67,0,0,0-8.28-4.61,30,30,0,0,0-9.83-1.59,27.69,27.69,0,0,0-15.62,4.28,26.88,26.88,0,0,0-9.9,12.44q-3.42,8.16-3.41,19.66v14q0,11.65,3.41,19.9a27.06,27.06,0,0,0,9.9,12.56,27.47,27.47,0,0,0,15.62,4.32,30.2,30.2,0,0,0,9.76-1.55,26.33,26.33,0,0,0,8.28-4.52,26.68,26.68,0,0,0,6.19-7.22l-9.47-11.58a21.09,21.09,0,0,1-6.57,6.68,14.9,14.9,0,0,1-8,2.37q-7.66,0-11.82-5.46t-4.16-15.5v-14Q7754.25,7494.86,7758.44,7489.48Z" transform="translate(-6429.35 -6843.62)"/><rect class="cls-2" x="1379.42" y="591.95" width="13.15" height="16.64"/><rect class="cls-2" x="1379.42" y="625.88" width="13.15" height="84.67"/><polygon class="cls-2" points="1459 582.16 1449.53 572.21 1431.1 601.16 1439.35 609.57 1459 582.16"/><path class="cls-2" d="M7882.42,7472.55a28,28,0,0,0-29.77,0,26.67,26.67,0,0,0-9.44,12.48q-3.26,8.21-3.25,19.7v13.79q0,11.65,3.25,19.94a26.82,26.82,0,0,0,9.44,12.6,27.8,27.8,0,0,0,29.77,0,26.77,26.77,0,0,0,9.44-12.52q3.26-8.19,3.26-19.78v-14q0-11.5-3.26-19.7A26.6,26.6,0,0,0,7882.42,7472.55Zm-.45,46.21q0,9.87-3.77,15.34a13.15,13.15,0,0,1-21.33,0q-3.77-5.48-3.77-15.34v-14q0-9.87,3.77-15.25a13.25,13.25,0,0,1,21.33,0q3.77,5.39,3.77,15.25Z" transform="translate(-6429.35 -6843.62)"/><path class="cls-2" d="M7961.58,7477.28a19.07,19.07,0,0,0-16.85-9,16.87,16.87,0,0,0-11,4.16,27.16,27.16,0,0,0-6.73,8.89v-11.83H7913.8v84.67H7927v-53.59q0-7.83,3.51-12.15t9.95-4.33a12.17,12.17,0,0,1,10.32,4.9q3.66,4.89,3.67,13.87v51.3h13.14v-51.39Q7967.54,7486.3,7961.58,7477.28Z" transform="translate(-6429.35 -6843.62)"/><path class="cls-1" d="M6429.35,7254.84V7394h1540.3v-139.2Zm88,79.37h-58.09v-18.46h58.09Zm142,0h-58.09v-18.46h58.09Zm142,0h-58.09v-18.46h58.09Zm142,0h-58.09v-18.46h58.09Zm142,0h-58.1v-18.46h58.1Zm142,0h-58.09v-18.46h58.09Zm142,0h-58.09v-18.46h58.09Zm142,0h-58.1v-18.46h58.1Zm142,0h-58.09v-18.46h58.09Zm142,0h-58.09v-18.46h58.09Zm142,0h-58.1v-18.46h58.1Z" transform="translate(-6429.35 -6843.62)"/></svg>