<svg id="LOGO" xmlns="http://www.w3.org/2000/svg" viewBox="0 0 1273.92 588.67"><defs><style>.cls-1{fill:#fff;}</style></defs><title>LOGOTIPO W</title><path class="cls-1" d="M6699.17,7058.79q16.23-10,25.24-28.25t9-42.24q0-24-8.92-42.24t-25.15-28.26q-16.23-9.95-37.65-9.95h-86a12.1,12.1,0,0,0-12.1,12.1v254.51a12.1,12.1,0,0,0,12.1,12.1h10.47a12.1,12.1,0,0,0,12.1-12.1v-93.61a12.1,12.1,0,0,1,12.1-12.1h31.67a12.1,12.1,0,0,1,11.05,7.16l46.33,103.49a12.11,12.11,0,0,0,11,7.16h14.28a12.11,12.11,0,0,0,11-17.23L6692,7075.72a12,12,0,0,1,4.92-15.59C6697.66,7059.7,6698.42,7059.25,6699.17,7058.79ZM6598.3,6957.11a12.1,12.1,0,0,1,12.1-12.1h52.65a29.65,29.65,0,0,1,17.59,5.36,34.65,34.65,0,0,1,11.73,15.23,63.87,63.87,0,0,1,0,45.4,34.42,34.42,0,0,1-11.81,15.23,29.79,29.79,0,0,1-17.51,5.36H6610.4a12.1,12.1,0,0,1-12.1-12.1Z" transform="translate(-6562.54 -6905.16)"/><path class="cls-1" d="M6810.48,6908h-4.72a12.1,12.1,0,0,0-12.11,12.1v254.32a12.11,12.11,0,0,0,12.11,12.1h134.53a12.11,12.11,0,0,0,12.11-12.1v-13a12.1,12.1,0,0,0-12.11-12.1h-99.86a12.1,12.1,0,0,1-12.1-12.11v-58.35a12.09,12.09,0,0,1,12.1-12.1h81.17a12.11,12.11,0,0,0,12.1-12.11v-12.95a12.11,12.11,0,0,0-12.1-12.11h-81.17a12.1,12.1,0,0,1-12.1-12.1V6957.3a12.1,12.1,0,0,1,12.1-12.1h99.86a12.11,12.11,0,0,0,12.11-12.1v-13a12.1,12.1,0,0,0-12.11-12.1H6810.48Z" transform="translate(-6562.54 -6905.16)"/><path class="cls-1" d="M7041.53,6974.6q6.29-14.84,17.67-23.08a44.06,44.06,0,0,1,26.52-8.24,43.44,43.44,0,0,1,21.07,5.56,54.31,54.31,0,0,1,17.76,15.8,64,64,0,0,1,8.44,15.63,11.92,11.92,0,0,0,11.23,7.64h11.41a12.15,12.15,0,0,0,11.59-15.67,110.26,110.26,0,0,0-12.59-27.81,86.23,86.23,0,0,0-29.82-29,77.16,77.16,0,0,0-39.09-10.25q-25.67,0-45.13,12.93t-30.17,36.49q-10.69,23.57-10.7,54.6v76.43q0,31,10.7,54.59t30.17,36.4q19.45,12.82,45.13,12.83a76.86,76.86,0,0,0,38.92-10.25q17.83-10.24,29.91-29a109.31,109.31,0,0,0,12.65-27.8,12.14,12.14,0,0,0-11.58-15.68H7144.4a12.06,12.06,0,0,0-11.38,8,60.67,60.67,0,0,1-8.47,16.11,51.08,51.08,0,0,1-17.67,15.32,45.89,45.89,0,0,1-21.16,5.17,44.39,44.39,0,0,1-26.52-8.14q-11.39-8.15-17.67-23.08t-6.29-34.48v-76.43Q7035.24,6989.46,7041.53,6974.6Z" transform="translate(-6562.54 -6905.16)"/><path class="cls-1" d="M7343.79,6917.9q-19.72-12.73-45.56-12.74t-45.54,12.74q-19.72,12.75-30.51,36t-10.79,53.93v78.92q0,30.64,10.79,53.92t30.51,36q19.71,12.75,45.54,12.74t45.56-12.74q19.71-12.73,30.5-36t10.79-53.92v-78.92q0-30.65-10.79-53.93T7343.79,6917.9Zm5.78,170.2q0,18.78-6.38,33t-18,22a50.63,50.63,0,0,1-53.87,0q-11.64-7.76-18-22t-6.37-33v-81.61q0-18.77,6.37-33t18-22q11.64-7.76,26.93-7.75t26.94,7.75q11.65,7.77,18,22t6.38,33Z" transform="translate(-6562.54 -6905.16)"/><path class="cls-1" d="M7564.8,6917.9q-19.71-12.73-45.55-12.74t-45.54,12.74q-19.72,12.75-30.51,36t-10.79,53.93v78.92q0,30.64,10.79,53.92t30.51,36q19.71,12.75,45.54,12.74t45.55-12.74q19.72-12.73,30.51-36t10.79-53.92v-78.92q0-30.65-10.79-53.93T7564.8,6917.9Zm5.78,170.2q0,18.78-6.37,33t-18,22a50.63,50.63,0,0,1-53.87,0q-11.65-7.76-18-22t-6.37-33v-81.61q0-18.77,6.37-33t18-22q11.63-7.76,26.93-7.75t26.94,7.75q11.64,7.77,18,22t6.37,33Z" transform="translate(-6562.54 -6905.16)"/><path class="cls-1" d="M7829,7079.48a61.76,61.76,0,0,0-16.66-23.66c-1-.85-2-1.67-3-2.44a12.22,12.22,0,0,1-.06-19.6c.79-.61,1.56-1.24,2.31-1.9a55,55,0,0,0,15-21.46,72.82,72.82,0,0,0,4.93-26.91q0-23.37-8-40.23a57.76,57.76,0,0,0-24.13-26.05q-16.16-9.19-40.11-9.19H7674a12.1,12.1,0,0,0-12.11,12.1v254.32a12.11,12.11,0,0,0,12.11,12.1h88.17q21.92,0,38.41-9.39a62.91,62.91,0,0,0,25.32-26.63q8.83-17.23,8.84-39.84v-.57A80.47,80.47,0,0,0,7829,7079.48Zm-76-135.24q21.75,0,32.63,10.34t10.88,31.23q0,19.92-9.77,30.07t-29,10.15h-49.25a12.11,12.11,0,0,1-12.11-12.1v-57.59a12.11,12.11,0,0,1,12.11-12.1Zm46.74,163q0,20.51-12.07,31.8t-38.41,11.3h-40.75a12.1,12.1,0,0,1-12.11-12.1v-64.87a12.11,12.11,0,0,1,12.11-12.1h49.25q14.61,0,24,5.46a32.29,32.29,0,0,1,13.68,15.61q4.34,10.15,4.34,24.33Z" transform="translate(-6562.54 -6905.16)"/><path class="cls-1" d="M6608.14,7442a54.2,54.2,0,0,0-11.76-4.32l-.58-.14-.59-.13a2.13,2.13,0,0,0-.4-.1,3.89,3.89,0,0,1-.4-.1,70.9,70.9,0,0,1-9.4-2.87,13.55,13.55,0,0,1-5.65-4.28q-2.26-2.91-2.27-8v-.07q0-7.35,4.4-11.37t12.34-4a20.52,20.52,0,0,1,8.82,2.06,34.61,34.61,0,0,1,8.82,6.17l6.18-10.93a45,45,0,0,0-7.7-5.7,35.3,35.3,0,0,0-7.94-3.41,29.91,29.91,0,0,0-8.18-1.14,30.59,30.59,0,0,0-14.87,3.37,22.27,22.27,0,0,0-9.41,9.81,34.45,34.45,0,0,0-3.22,15.55v.07q0,10.4,3.46,16a18.76,18.76,0,0,0,8.34,7.76,68.31,68.31,0,0,0,12.66,3.81l.8.2a.77.77,0,0,0,.34.07.81.81,0,0,1,.35.07,51,51,0,0,1,8.61,2.66,12.75,12.75,0,0,1,5.43,4.46,13.88,13.88,0,0,1,2.11,8.13v.06q0,7.23-4.64,11.17t-13.05,3.94a27.69,27.69,0,0,1-11.57-2.42,30.1,30.1,0,0,1-9.75-7.29l-6.77,10.52a40,40,0,0,0,8.13,6.75,34.63,34.63,0,0,0,9.35,4.05,40.59,40.59,0,0,0,10.61,1.35,32.82,32.82,0,0,0,15.37-3.34,22.66,22.66,0,0,0,9.73-9.72,32.51,32.51,0,0,0,3.35-15.34v-.14q0-9.65-3.17-15.21A19.88,19.88,0,0,0,6608.14,7442Z" transform="translate(-6562.54 -6905.16)"/><path class="cls-1" d="M6667.11,7426.17a17.16,17.16,0,0,0-11.84-4.38,20.63,20.63,0,0,0-12.57,3.84,23.75,23.75,0,0,0-8,11.2,50.88,50.88,0,0,0-2.74,17.74v7.9a45.45,45.45,0,0,0,2.85,17,22.59,22.59,0,0,0,8.28,10.69,23,23,0,0,0,13.11,3.65,21.56,21.56,0,0,0,10.29-2.74,30.63,30.63,0,0,0,9.22-7.72l-7.14-9a19.07,19.07,0,0,1-5.81,4.72,14,14,0,0,1-6.56,1.69q-6.66,0-10.28-4.66c-2.33-3-3.51-7.26-3.59-12.75h34.82v-4.58a67.11,67.11,0,0,0-2.59-19.9Q6672,7430.55,6667.11,7426.17Zm-24.71,26.11c.18-5.48,1.25-9.83,3.31-12.95a10.8,10.8,0,0,1,9.56-5.13q5.07,0,8.08,4.76t3.49,13.32Z" transform="translate(-6562.54 -6905.16)"/><path class="cls-1" d="M6724.26,7423.17a16.47,16.47,0,0,0-6.85-1.38,13.45,13.45,0,0,0-8.95,3.47,23.3,23.3,0,0,0-5.49,7.34v-9.8H6692.1v70H6703V7448.5q0-6.41,2.85-10a9.63,9.63,0,0,1,8-3.61,10.83,10.83,0,0,1,5.07,1.14,9.66,9.66,0,0,1,3.62,3.38l7.09-12.15A15.17,15.17,0,0,0,6724.26,7423.17Z" transform="translate(-6562.54 -6905.16)"/><polygon class="cls-1" points="195.16 567.63 181.63 517.64 170.27 517.64 191.06 587.66 199.26 587.66 220.05 517.64 208.7 517.64 195.16 567.63"/><rect class="cls-1" x="230.71" y="489.57" width="10.87" height="13.76"/><rect class="cls-1" x="230.71" y="517.64" width="10.87" height="70.02"/><path class="cls-1" d="M6833.38,7439.33a11.64,11.64,0,0,1,9.75-4.45,12.85,12.85,0,0,1,6.56,1.82,17.18,17.18,0,0,1,5.49,5.19l7.83-8.9a21.38,21.38,0,0,0-5.06-6.07,22,22,0,0,0-6.85-3.82,24.92,24.92,0,0,0-8.13-1.31,22.91,22.91,0,0,0-12.92,3.54,22.17,22.17,0,0,0-8.18,10.29,42.08,42.08,0,0,0-2.82,16.26v11.53a43,43,0,0,0,2.82,16.46,22.35,22.35,0,0,0,8.18,10.39,22.77,22.77,0,0,0,12.92,3.58,25,25,0,0,0,8.08-1.29,21.69,21.69,0,0,0,12-9.71l-7.83-9.58a17.43,17.43,0,0,1-5.44,5.53,12.26,12.26,0,0,1-6.61,2,11.59,11.59,0,0,1-9.78-4.52q-3.43-4.51-3.43-12.82v-11.53Q6829.92,7443.78,6833.38,7439.33Z" transform="translate(-6562.54 -6905.16)"/><rect class="cls-1" x="312.46" y="517.64" width="10.87" height="70.02"/><rect class="cls-1" x="312.46" y="489.57" width="10.87" height="13.76"/><path class="cls-1" d="M6935.92,7425.33a23.17,23.17,0,0,0-24.62,0,22,22,0,0,0-7.81,10.32,44.24,44.24,0,0,0-2.69,16.29v11.4a45.23,45.23,0,0,0,2.69,16.5,22.16,22.16,0,0,0,7.81,10.42,23,23,0,0,0,24.62,0,22.21,22.21,0,0,0,7.81-10.35,44.48,44.48,0,0,0,2.69-16.36v-11.61a44.24,44.24,0,0,0-2.69-16.29A22,22,0,0,0,6935.92,7425.33Zm-.37,38.22q0,8.16-3.12,12.68a10.87,10.87,0,0,1-17.64,0q-3.12-4.51-3.12-12.68v-11.61q0-8.16,3.12-12.61a11,11,0,0,1,17.64,0q3.12,4.45,3.12,12.61Z" transform="translate(-6562.54 -6905.16)"/><path class="cls-1" d="M6995,7452.82a38.26,38.26,0,0,0-9.88-2,.91.91,0,0,0-.32-.06h-.32a3.65,3.65,0,0,0-.72-.07,3,3,0,0,1-.67-.07,59.59,59.59,0,0,1-6.82-.81,8.06,8.06,0,0,1-4-1.89,5.42,5.42,0,0,1-1.57-4.25q0-4.78,2.77-7.18t8.31-2.4a20.32,20.32,0,0,1,7.86,1.69,33.88,33.88,0,0,1,8.19,5.06l6.55-10.05a36.11,36.11,0,0,0-6.87-5,32.06,32.06,0,0,0-7.49-3,33,33,0,0,0-8.24-1,25.63,25.63,0,0,0-11.88,2.46,15.94,15.94,0,0,0-7.14,7.39,28.09,28.09,0,0,0-2.4,12.34q0,7.43,2.48,11.4a12.7,12.7,0,0,0,6.21,5.43,34.75,34.75,0,0,0,9.11,2,3.28,3.28,0,0,1,.43,0,3,3,0,0,0,.42,0,8.44,8.44,0,0,0,.91.1c.32,0,.62,0,.91,0a67.16,67.16,0,0,1,7.35,1,8.94,8.94,0,0,1,4.37,2.26,6.72,6.72,0,0,1,1.76,5.06c0,3.38-1.08,5.9-3.23,7.59s-5.37,2.53-9.67,2.53a19.8,19.8,0,0,1-8.74-2.16,35.7,35.7,0,0,1-8.9-6.47l-6.45,10.05a32.57,32.57,0,0,0,6.88,6.07,29.07,29.07,0,0,0,8,3.64,33.57,33.57,0,0,0,9.19,1.22,29.54,29.54,0,0,0,12.92-2.5,16.58,16.58,0,0,0,7.71-7.45,27.27,27.27,0,0,0,2.55-12.52q0-8.29-2.77-12.68A13.7,13.7,0,0,0,6995,7452.82Z" transform="translate(-6562.54 -6905.16)"/><path class="cls-1" d="M7089.35,7398.85a29.59,29.59,0,0,0-15.93-4.11h-24.57v98.08h24.51a29.7,29.7,0,0,0,16-4.11,25.89,25.89,0,0,0,10.1-12q3.46-7.89,3.47-19v-27.8q0-11.13-3.47-19A26,26,0,0,0,7089.35,7398.85Zm2.4,59.37q0,10.24-4.72,15.88t-13.29,5.64h-14v-71.92h14q8.58,0,13.29,5.64t4.72,15.88Z" transform="translate(-6562.54 -6905.16)"/><path class="cls-1" d="M7152.93,7426.17a17.14,17.14,0,0,0-11.83-4.38,20.66,20.66,0,0,0-12.58,3.84,23.82,23.82,0,0,0-8,11.2,50.88,50.88,0,0,0-2.74,17.74v7.9a45.45,45.45,0,0,0,2.85,17,22.55,22.55,0,0,0,8.29,10.69,23,23,0,0,0,13.11,3.65,21.56,21.56,0,0,0,10.28-2.74,30.39,30.39,0,0,0,9.22-7.72l-7.14-9a19,19,0,0,1-5.81,4.72,14,14,0,0,1-6.55,1.69q-6.66,0-10.29-4.66c-2.32-3-3.5-7.26-3.59-12.75H7163v-4.58a67.46,67.46,0,0,0-2.58-19.9Q7157.82,7430.55,7152.93,7426.17Zm-24.71,26.11c.18-5.48,1.25-9.83,3.31-12.95a10.83,10.83,0,0,1,9.57-5.13c3.37,0,6.07,1.59,8.07,4.76s3.17,7.61,3.49,13.32Z" transform="translate(-6562.54 -6905.16)"/><path class="cls-1" d="M7219.81,7418.18a18.68,18.68,0,0,1,5.55-8.13,12.79,12.79,0,0,1,8.31-2.9,12.46,12.46,0,0,1,6.61,2,17.89,17.89,0,0,1,5.57,5.56,24.27,24.27,0,0,1,3.38,8.2h11.14a44.28,44.28,0,0,0-5.09-15.32,28.8,28.8,0,0,0-9.35-10.22,22.21,22.21,0,0,0-12.26-3.6,23,23,0,0,0-14.15,4.55,29.21,29.21,0,0,0-9.46,12.85,51,51,0,0,0-3.36,19.23v26.91a51,51,0,0,0,3.36,19.23,29.06,29.06,0,0,0,9.46,12.82,23.17,23.17,0,0,0,14.15,4.52,22.1,22.1,0,0,0,12.2-3.61,29,29,0,0,0,9.38-10.22,43.82,43.82,0,0,0,5.12-15.32h-11.14a23.78,23.78,0,0,1-3.38,8.5,16.55,16.55,0,0,1-5.55,5.4,13.14,13.14,0,0,1-6.63,1.82,12.82,12.82,0,0,1-8.31-2.87,18.47,18.47,0,0,1-5.55-8.12,34.63,34.63,0,0,1-2-12.15v-26.91A34.53,34.53,0,0,1,7219.81,7418.18Z" transform="translate(-6562.54 -6905.16)"/><path class="cls-1" d="M7308.28,7425.33a23.17,23.17,0,0,0-24.62,0,22,22,0,0,0-7.81,10.32,44.24,44.24,0,0,0-2.69,16.29v11.4a45.23,45.23,0,0,0,2.69,16.5,22.16,22.16,0,0,0,7.81,10.42,23,23,0,0,0,24.62,0,22.21,22.21,0,0,0,7.81-10.35,44.48,44.48,0,0,0,2.69-16.36v-11.61a44.24,44.24,0,0,0-2.69-16.29A22,22,0,0,0,7308.28,7425.33Zm-.37,38.22q0,8.16-3.12,12.68a10.87,10.87,0,0,1-17.64,0q-3.12-4.51-3.12-12.68v-11.61q0-8.16,3.12-12.61a11,11,0,0,1,17.64,0q3.12,4.45,3.12,12.61Z" transform="translate(-6562.54 -6905.16)"/><path class="cls-1" d="M7359.82,7421.79a13.94,13.94,0,0,0-9.14,3.44,22.36,22.36,0,0,0-5.57,7.35v-9.78h-10.88v70h10.88V7448.5q0-6.47,2.9-10.05a11.14,11.14,0,0,1,16.76.47q3,4,3,11.47v42.43h10.87v-42.5q0-13.62-4.93-21.08A15.76,15.76,0,0,0,7359.82,7421.79Z" transform="translate(-6562.54 -6905.16)"/><path class="cls-1" d="M7428.33,7452.82a38.43,38.43,0,0,0-9.89-2,.91.91,0,0,0-.32-.06h-.32a3.65,3.65,0,0,0-.72-.07,3,3,0,0,1-.67-.07,59.59,59.59,0,0,1-6.82-.81,8.06,8.06,0,0,1-4-1.89,5.42,5.42,0,0,1-1.57-4.25q0-4.78,2.77-7.18t8.31-2.4a20.41,20.41,0,0,1,7.87,1.69,34,34,0,0,1,8.18,5.06l6.55-10.05a36.11,36.11,0,0,0-6.87-5,32.06,32.06,0,0,0-7.49-3,33,33,0,0,0-8.24-1,25.63,25.63,0,0,0-11.88,2.46,15.94,15.94,0,0,0-7.14,7.39,28.09,28.09,0,0,0-2.4,12.34q0,7.43,2.48,11.4a12.7,12.7,0,0,0,6.21,5.43,34.85,34.85,0,0,0,9.11,2,3.28,3.28,0,0,1,.43,0,3,3,0,0,0,.42,0,8.44,8.44,0,0,0,.91.1c.32,0,.62,0,.91,0a67.16,67.16,0,0,1,7.35,1,8.94,8.94,0,0,1,4.37,2.26,6.72,6.72,0,0,1,1.76,5.06c0,3.38-1.07,5.9-3.23,7.59s-5.37,2.53-9.67,2.53a19.8,19.8,0,0,1-8.74-2.16,35.7,35.7,0,0,1-8.9-6.47l-6.45,10.05a32.57,32.57,0,0,0,6.88,6.07,29.07,29.07,0,0,0,8,3.64,33.57,33.57,0,0,0,9.19,1.22,29.54,29.54,0,0,0,12.92-2.5,16.58,16.58,0,0,0,7.71-7.45,27.27,27.27,0,0,0,2.55-12.52q0-8.29-2.77-12.68A13.68,13.68,0,0,0,7428.33,7452.82Z" transform="translate(-6562.54 -6905.16)"/><path class="cls-1" d="M7464.11,7402.43h-10.87v20.37h-5.7v12.41h5.7v39.4q0,9.18,3.12,13.86t9.83,4.69h6.29v-13.09h-5.22a2.56,2.56,0,0,1-2.35-1.38,8,8,0,0,1-.8-3.94v-39.54h8.37V7422.8h-8.37Z" transform="translate(-6562.54 -6905.16)"/><path class="cls-1" d="M7519.56,7423.17a16.45,16.45,0,0,0-6.84-1.38,13.48,13.48,0,0,0-9,3.47,23.37,23.37,0,0,0-5.49,7.33v-9.79H7487.4v70h10.87V7448.5q0-6.41,2.85-10a9.64,9.64,0,0,1,8-3.61,10.81,10.81,0,0,1,5.06,1.14,9.66,9.66,0,0,1,3.62,3.38l7.09-12.15A15.09,15.09,0,0,0,7519.56,7423.17Z" transform="translate(-6562.54 -6905.16)"/><path class="cls-1" d="M7567.34,7467q0,6.6-2.93,10.18a10.06,10.06,0,0,1-8.26,3.58,9.76,9.76,0,0,1-8.34-4q-3-4-3-11.37V7422.8H7534v42.57q0,13.56,5,21a16,16,0,0,0,14.15,7.46,13.44,13.44,0,0,0,9.43-3.51,19.63,19.63,0,0,0,4.8-6.82v9.31h10.82v-70h-10.82Z" transform="translate(-6562.54 -6905.16)"/><path class="cls-1" d="M7607.42,7439.33a11.64,11.64,0,0,1,9.75-4.45,12.88,12.88,0,0,1,6.56,1.82,17.15,17.15,0,0,1,5.48,5.19l7.84-8.9a21.25,21.25,0,0,0-5.07-6.07,21.87,21.87,0,0,0-6.84-3.82,24.92,24.92,0,0,0-8.13-1.31,22.91,22.91,0,0,0-12.92,3.54,22.19,22.19,0,0,0-8.19,10.29,42.08,42.08,0,0,0-2.82,16.26v11.53a43,43,0,0,0,2.82,16.46,22.37,22.37,0,0,0,8.19,10.39,22.77,22.77,0,0,0,12.92,3.58,25,25,0,0,0,8.07-1.29,21.61,21.61,0,0,0,6.85-3.74,22.07,22.07,0,0,0,5.12-6l-7.84-9.58a17.41,17.41,0,0,1-5.43,5.53,12.29,12.29,0,0,1-6.61,2q-6.35,0-9.78-4.52t-3.44-12.82v-11.53Q7604,7443.78,7607.42,7439.33Z" transform="translate(-6562.54 -6905.16)"/><path class="cls-1" d="M7661.78,7439.33c2.3-3,5.56-4.45,9.75-4.45a12.88,12.88,0,0,1,6.56,1.82,17.15,17.15,0,0,1,5.48,5.19l7.84-8.9a21.25,21.25,0,0,0-5.07-6.07,21.87,21.87,0,0,0-6.84-3.82,24.92,24.92,0,0,0-8.13-1.31,22.91,22.91,0,0,0-12.92,3.54,22.19,22.19,0,0,0-8.19,10.29,42.08,42.08,0,0,0-2.82,16.26v11.53a43,43,0,0,0,2.82,16.46,22.37,22.37,0,0,0,8.19,10.39,22.77,22.77,0,0,0,12.92,3.58,25,25,0,0,0,8.07-1.29,21.72,21.72,0,0,0,6.85-3.74,22.07,22.07,0,0,0,5.12-6l-7.84-9.58a17.41,17.41,0,0,1-5.43,5.53,12.29,12.29,0,0,1-6.61,2q-6.34,0-9.78-4.52t-3.44-12.82v-11.53Q7658.31,7443.78,7661.78,7439.33Z" transform="translate(-6562.54 -6905.16)"/><rect class="cls-1" x="1140.86" y="489.57" width="10.87" height="13.76"/><rect class="cls-1" x="1140.86" y="517.64" width="10.87" height="70.02"/><polygon class="cls-1" points="1206.68 481.48 1198.84 473.25 1183.6 497.2 1190.42 504.14 1206.68 481.48"/><path class="cls-1" d="M7764.31,7425.33a23.17,23.17,0,0,0-24.62,0,22,22,0,0,0-7.8,10.32,44,44,0,0,0-2.69,16.29v11.4a45,45,0,0,0,2.69,16.5,22.14,22.14,0,0,0,7.8,10.42,23,23,0,0,0,24.62,0,22.08,22.08,0,0,0,7.81-10.35,44.26,44.26,0,0,0,2.7-16.36v-11.61a44,44,0,0,0-2.7-16.29A21.9,21.9,0,0,0,7764.31,7425.33Zm-.37,38.22q0,8.16-3.11,12.68a10.88,10.88,0,0,1-17.65,0q-3.12-4.51-3.11-12.68v-11.61q0-8.16,3.11-12.61a11,11,0,0,1,17.65,0q3.1,4.45,3.11,12.61Z" transform="translate(-6562.54 -6905.16)"/><path class="cls-1" d="M7829.78,7429.24a15.74,15.74,0,0,0-13.93-7.45,14,14,0,0,0-9.14,3.44,22.5,22.5,0,0,0-5.57,7.35v-9.78h-10.87v70h10.87V7448.5q0-6.47,2.91-10.05a11.14,11.14,0,0,1,16.76.47q3,4,3,11.47v42.43h10.87v-42.5Q7834.71,7436.7,7829.78,7429.24Z" transform="translate(-6562.54 -6905.16)"/><path class="cls-1" d="M6562.54,7245.27V7360.4H7836.46V7245.27Zm72.78,65.64h-48v-15.27h48Zm117.44,0h-48.05v-15.27h48.05Zm117.45,0h-48.05v-15.27h48.05Zm117.44,0h-48v-15.27h48Zm117.45,0h-48.05v-15.27h48.05Zm117.44,0h-48.05v-15.27h48.05Zm117.45,0h-48.05v-15.27H7340Zm117.44,0h-48.05v-15.27h48.05Zm117.45,0h-48.05v-15.27h48.05Zm117.44,0h-48v-15.27h48Zm117.45,0h-48.05v-15.27h48.05Z" transform="translate(-6562.54 -6905.16)"/></svg>