<svg id="LOGO" xmlns="http://www.w3.org/2000/svg" viewBox="0 0 1273.92 588.72"><defs><style>.cls-1{fill:#ffa300;}</style></defs><title>LOGOTIPO Y</title><path class="cls-1" d="M136.63,153.63a67.31,67.31,0,0,0,25.24-28.25q9-18.25,9-42.24T162,40.9A66.87,66.87,0,0,0,136.8,12.64q-16.23-9.94-37.65-10h-86a12.1,12.1,0,0,0-12.1,12.1h0V269.3a12.1,12.1,0,0,0,12.1,12.1H23.62a12.1,12.1,0,0,0,12.1-12.1h0V175.69a12.1,12.1,0,0,1,12.1-12.1H79.49a12.1,12.1,0,0,1,11.05,7.16l46.33,103.49a12.11,12.11,0,0,0,11,7.16h14.28a12.1,12.1,0,0,0,11-17.23l-43.69-93.61A12,12,0,0,1,134.38,155C135.12,154.54,135.88,154.09,136.63,153.63ZM35.76,52a12.1,12.1,0,0,1,12.1-12.1h52.65a29.65,29.65,0,0,1,17.59,5.36,34.69,34.69,0,0,1,11.73,15.23,63.87,63.87,0,0,1,0,45.4A34.42,34.42,0,0,1,118,121.07a29.78,29.78,0,0,1-17.51,5.36H47.86a12.1,12.1,0,0,1-12.1-12.1h0Z" transform="translate(0 0)"/><path class="cls-1" d="M247.94,2.84h-4.72a12.1,12.1,0,0,0-12.11,12.09h0V269.26a12.12,12.12,0,0,0,12.11,12.1H377.75a12.12,12.12,0,0,0,12.11-12.1v-13a12.1,12.1,0,0,0-12.1-12.1H277.89a12.1,12.1,0,0,1-12.1-12.1h0V173.7a12.08,12.08,0,0,1,12.08-12.1h81.19a12.12,12.12,0,0,0,12.1-12.11v-13a12.12,12.12,0,0,0-12.1-12.11H277.89a12.1,12.1,0,0,1-12.1-12.1h0V52.14A12.1,12.1,0,0,1,277.89,40h99.86a12.12,12.12,0,0,0,12.11-12.1v-13a12.1,12.1,0,0,0-12.1-12.1H247.94Z" transform="translate(0 0)"/><path class="cls-1" d="M479,69.44q6.28-14.83,17.67-23.08a44.1,44.1,0,0,1,26.52-8.24,43.46,43.46,0,0,1,21.07,5.56A54.38,54.38,0,0,1,562,59.48a63.67,63.67,0,0,1,8.44,15.63,11.92,11.92,0,0,0,11.23,7.64h11.41a12.15,12.15,0,0,0,11.59-15.67,110.18,110.18,0,0,0-12.59-27.81,86.23,86.23,0,0,0-29.82-29A77.12,77.12,0,0,0,523.18,0Q497.52,0,478.05,13T447.88,49.44Q437.19,73,437.18,104v76.43q0,31,10.7,54.59t30.17,36.4q19.45,12.82,45.13,12.83A76.9,76.9,0,0,0,562.1,274,86.92,86.92,0,0,0,592,245a109.44,109.44,0,0,0,12.65-27.8,12.14,12.14,0,0,0-8.07-15.15,12,12,0,0,0-3.51-.53H581.86a12.06,12.06,0,0,0-11.38,8A60.55,60.55,0,0,1,562,225.67,51.11,51.11,0,0,1,544.34,241a45.85,45.85,0,0,1-21.16,5.17A44.36,44.36,0,0,1,496.66,238q-11.39-8.15-17.67-23.08t-6.29-34.48V104Q472.7,84.31,479,69.44Z" transform="translate(0 0)"/><path class="cls-1" d="M781.25,12.74Q761.53,0,735.69,0T690.15,12.74q-19.73,12.75-30.51,36t-10.79,53.93v78.92q0,30.65,10.79,53.92t30.51,36q19.71,12.75,45.54,12.74t45.56-12.74q19.71-12.74,30.5-36t10.79-53.92V102.67q0-30.65-10.79-53.93T781.25,12.74ZM787,182.94q0,18.78-6.38,33t-18,22a50.61,50.61,0,0,1-53.87,0q-11.64-7.75-18-22t-6.37-33V101.33q0-18.76,6.37-33t18-22a50.68,50.68,0,0,1,53.87,0q11.65,7.77,18,22t6.38,33Z" transform="translate(0 0)"/><path class="cls-1" d="M1002.26,12.74Q982.55,0,956.71,0T911.17,12.74q-19.73,12.75-30.51,36t-10.79,53.93v78.92q0,30.65,10.79,53.92t30.51,36q19.71,12.75,45.54,12.74t45.55-12.74q19.72-12.74,30.51-36t10.79-53.92V102.67q0-30.65-10.79-53.93T1002.26,12.74Zm5.78,170.2q0,18.78-6.37,33t-18,22a50.61,50.61,0,0,1-53.87,0q-11.65-7.75-18-22t-6.37-33V101.33q0-18.76,6.37-33t18-22a47.32,47.32,0,0,1,26.93-7.75q15.3,0,26.94,7.75t18,22q6.36,14.24,6.37,33Z" transform="translate(0 0)"/><path class="cls-1" d="M1266.46,174.32a61.8,61.8,0,0,0-16.66-23.66c-1-.85-2-1.67-3-2.44a12.22,12.22,0,0,1-2.55-17.09,12.09,12.09,0,0,1,2.49-2.51c.79-.61,1.56-1.24,2.31-1.9a55,55,0,0,0,15-21.46A72.84,72.84,0,0,0,1269,78.35q0-23.37-8-40.23a57.75,57.75,0,0,0-24.13-26q-16.15-9.19-40.11-9.19h-85.28A12.1,12.1,0,0,0,1099.35,15h0V269.3a12.12,12.12,0,0,0,12.11,12.1h88.17q21.91,0,38.41-9.39a62.91,62.91,0,0,0,25.32-26.63q8.84-17.24,8.84-39.84V205A80.6,80.6,0,0,0,1266.46,174.32Zm-76-135.24q21.75,0,32.63,10.34T1234,80.65q0,19.92-9.77,30.07t-29,10.15H1146a12.12,12.12,0,0,1-12.11-12.1V51.18A12.12,12.12,0,0,1,1146,39.08Zm46.74,163q0,20.5-12.07,31.8t-38.41,11.3H1146a12.11,12.11,0,0,1-12.11-12.09h0V168.21a12.11,12.11,0,0,1,12.11-12.1h49.25q14.61,0,24,5.46a32.32,32.32,0,0,1,13.68,15.61q4.33,10.15,4.34,24.33Z" transform="translate(0 0)"/><path class="cls-1" d="M45.6,536.84a54.23,54.23,0,0,0-11.76-4.32l-.58-.14-.59-.13a1.8,1.8,0,0,0-.4-.1l-.4-.1a71.3,71.3,0,0,1-9.4-2.87,13.57,13.57,0,0,1-5.65-4.28c-1.51-1.94-2.26-4.61-2.27-8v-.07q0-7.35,4.4-11.37t12.34-4a20.57,20.57,0,0,1,8.82,2.06,34.67,34.67,0,0,1,8.82,6.17l6.18-10.93a45.11,45.11,0,0,0-7.7-5.7,35.3,35.3,0,0,0-7.94-3.41,29.75,29.75,0,0,0-8.18-1.14,30.59,30.59,0,0,0-14.87,3.37A22.3,22.3,0,0,0,7,501.69a34.48,34.48,0,0,0-3.22,15.55v.07q0,10.4,3.46,16a18.75,18.75,0,0,0,8.34,7.76,68.35,68.35,0,0,0,12.66,3.81l.8.2a.8.8,0,0,0,.34.07.84.84,0,0,1,.35.07,51,51,0,0,1,8.61,2.66,12.76,12.76,0,0,1,5.43,4.46,13.89,13.89,0,0,1,2.11,8.13v.06q0,7.23-4.64,11.17t-13,3.94a27.77,27.77,0,0,1-11.57-2.42,30.11,30.11,0,0,1-9.75-7.29L.11,576.45a39.89,39.89,0,0,0,8.13,6.75,34.69,34.69,0,0,0,9.35,4A40.84,40.84,0,0,0,28.2,588.6a32.84,32.84,0,0,0,15.37-3.34,22.71,22.71,0,0,0,9.73-9.72,32.58,32.58,0,0,0,3.35-15.34v-.14q0-9.64-3.17-15.21A19.92,19.92,0,0,0,45.6,536.84Z" transform="translate(0 0)"/><path class="cls-1" d="M104.57,521a17.16,17.16,0,0,0-11.84-4.38,20.63,20.63,0,0,0-12.57,3.84,23.75,23.75,0,0,0-8,11.2,50.69,50.69,0,0,0-2.74,17.74v7.9a45.4,45.4,0,0,0,2.85,17A22.5,22.5,0,0,0,80.55,585a23,23,0,0,0,13.11,3.65A21.59,21.59,0,0,0,104,585.91a30.61,30.61,0,0,0,9.22-7.72l-7.14-9a19.08,19.08,0,0,1-5.81,4.72,14.07,14.07,0,0,1-6.56,1.69q-6.66,0-10.28-4.66c-2.33-3-3.51-7.26-3.59-12.75h34.82v-4.58a66.94,66.94,0,0,0-2.59-19.9Q109.46,525.39,104.57,521ZM79.86,547.12c.18-5.48,1.25-9.83,3.31-13A10.8,10.8,0,0,1,92.73,529q5.07,0,8.08,4.76t3.49,13.32Z" transform="translate(0 0)"/><path class="cls-1" d="M161.72,518a16.3,16.3,0,0,0-6.85-1.38,13.45,13.45,0,0,0-9,3.47,23.3,23.3,0,0,0-5.49,7.34v-9.8H129.56v70h10.9v-44.3q0-6.4,2.85-10a9.64,9.64,0,0,1,8-3.61,10.73,10.73,0,0,1,5.07,1.14,9.63,9.63,0,0,1,3.62,3.38l7.09-12.15A15.17,15.17,0,0,0,161.72,518Z" transform="translate(0 0)"/><polygon class="cls-1" points="195.16 567.63 181.63 517.64 170.27 517.64 191.06 587.66 199.26 587.66 220.05 517.64 208.7 517.64 195.16 567.63"/><rect class="cls-1" x="230.71" y="489.57" width="10.87" height="13.76"/><rect class="cls-1" x="230.71" y="517.64" width="10.87" height="70.02"/><path class="cls-1" d="M270.84,534.17a11.64,11.64,0,0,1,9.75-4.45,12.84,12.84,0,0,1,6.56,1.82,17.12,17.12,0,0,1,5.49,5.19l7.83-8.9a21.27,21.27,0,0,0-5.06-6.07,22.1,22.1,0,0,0-6.85-3.82,25,25,0,0,0-8.13-1.31,23,23,0,0,0-12.92,3.54,22.14,22.14,0,0,0-8.18,10.29,42.21,42.21,0,0,0-2.82,16.26v11.53a43,43,0,0,0,2.82,16.46,22.39,22.39,0,0,0,8.18,10.39,22.79,22.79,0,0,0,12.92,3.58,24.9,24.9,0,0,0,8.08-1.29,21.67,21.67,0,0,0,12-9.71l-7.83-9.58a17.31,17.31,0,0,1-5.44,5.53,12.24,12.24,0,0,1-6.61,2,11.61,11.61,0,0,1-9.78-4.52q-3.44-4.51-3.43-12.82V546.76Q267.38,538.62,270.84,534.17Z" transform="translate(0 0)"/><rect class="cls-1" x="312.46" y="517.64" width="10.87" height="70.02"/><rect class="cls-1" x="312.46" y="489.57" width="10.87" height="13.76"/><path class="cls-1" d="M373.38,520.17a23.17,23.17,0,0,0-24.62,0A22,22,0,0,0,341,530.49a44.32,44.32,0,0,0-2.69,16.29v11.4a45.26,45.26,0,0,0,2.69,16.5,22.11,22.11,0,0,0,7.81,10.42,23,23,0,0,0,24.62,0,22.29,22.29,0,0,0,7.81-10.35,44.52,44.52,0,0,0,2.69-16.36V546.78a44.32,44.32,0,0,0-2.69-16.29A22,22,0,0,0,373.38,520.17ZM373,558.39q0,8.16-3.12,12.68a10.87,10.87,0,0,1-17.64,0q-3.12-4.52-3.12-12.68V546.78q0-8.16,3.12-12.61a11,11,0,0,1,15.39-2.25,11.16,11.16,0,0,1,2.25,2.25q3.12,4.46,3.12,12.61Z" transform="translate(0 0)"/><path class="cls-1" d="M432.46,547.66a38.29,38.29,0,0,0-9.88-2,.87.87,0,0,0-.32-.06h-.32a3.51,3.51,0,0,0-.72-.07,3.05,3.05,0,0,1-.67-.07,60.12,60.12,0,0,1-6.82-.81,8,8,0,0,1-4-1.89,5.42,5.42,0,0,1-1.57-4.25q0-4.78,2.77-7.18t8.31-2.4a20.25,20.25,0,0,1,7.86,1.69,33.71,33.71,0,0,1,8.19,5.06l6.55-10a36.25,36.25,0,0,0-6.87-5,32.14,32.14,0,0,0-7.49-3,33.14,33.14,0,0,0-8.24-1,25.66,25.66,0,0,0-11.88,2.46,16,16,0,0,0-7.14,7.39,28.16,28.16,0,0,0-2.4,12.34q0,7.42,2.48,11.4a12.7,12.7,0,0,0,6.21,5.43,34.7,34.7,0,0,0,9.11,2h.85a9,9,0,0,0,.91.1h.91a67.25,67.25,0,0,1,7.35,1A8.93,8.93,0,0,1,430,561a6.73,6.73,0,0,1,1.76,5.06c0,3.38-1.08,5.9-3.23,7.59s-5.37,2.53-9.67,2.53a19.84,19.84,0,0,1-8.74-2.16,35.67,35.67,0,0,1-8.9-6.47l-6.45,10.05a32.62,32.62,0,0,0,6.88,6.07,29.08,29.08,0,0,0,8,3.64,33.53,33.53,0,0,0,9.19,1.22,29.57,29.57,0,0,0,12.92-2.5,16.57,16.57,0,0,0,7.71-7.45A27.29,27.29,0,0,0,442,566.07q0-8.3-2.77-12.68A13.73,13.73,0,0,0,432.46,547.66Z" transform="translate(0 0)"/><path class="cls-1" d="M526.81,493.69a29.6,29.6,0,0,0-15.93-4.11H486.31v98.08h24.51a29.68,29.68,0,0,0,16-4.11,25.83,25.83,0,0,0,10.1-12q3.47-7.89,3.47-19v-27.8q0-11.13-3.47-19A25.94,25.94,0,0,0,526.81,493.69Zm2.4,59.37q0,10.25-4.72,15.88t-13.29,5.64h-14V502.66h14q8.58,0,13.29,5.64t4.72,15.88Z" transform="translate(0 0)"/><path class="cls-1" d="M590.39,521a17.12,17.12,0,0,0-11.83-4.38A20.66,20.66,0,0,0,566,520.47a23.82,23.82,0,0,0-8,11.2,50.69,50.69,0,0,0-2.74,17.74v7.9a45.4,45.4,0,0,0,2.85,17A22.52,22.52,0,0,0,566.38,585a23,23,0,0,0,13.11,3.65,21.52,21.52,0,0,0,10.28-2.74,30.35,30.35,0,0,0,9.22-7.72l-7.14-9a19,19,0,0,1-5.81,4.72,14,14,0,0,1-6.55,1.69q-6.66,0-10.29-4.66c-2.32-3-3.5-7.26-3.59-12.75h34.85v-4.58a67.26,67.26,0,0,0-2.58-19.9Q595.29,525.39,590.39,521Zm-24.71,26.11c.18-5.48,1.25-9.83,3.31-13a10.83,10.83,0,0,1,9.57-5.13c3.37,0,6.07,1.59,8.07,4.76s3.17,7.61,3.49,13.32Z" transform="translate(0 0)"/><path class="cls-1" d="M657.27,513a18.73,18.73,0,0,1,5.55-8.13,12.76,12.76,0,0,1,8.31-2.9,12.41,12.41,0,0,1,6.61,2,17.91,17.91,0,0,1,5.57,5.56,24.18,24.18,0,0,1,3.38,8.2h11.14a44.25,44.25,0,0,0-5.09-15.32,28.84,28.84,0,0,0-9.35-10.22,22.24,22.24,0,0,0-12.26-3.6A23,23,0,0,0,657,493.16,29.23,29.23,0,0,0,647.52,506a50.91,50.91,0,0,0-3.36,19.23v26.91a50.91,50.91,0,0,0,3.36,19.23A29.06,29.06,0,0,0,657,584.2a23.13,23.13,0,0,0,14.15,4.52,22.11,22.11,0,0,0,12.2-3.61,28.92,28.92,0,0,0,9.38-10.22,43.76,43.76,0,0,0,5.12-15.32H686.69a23.76,23.76,0,0,1-3.38,8.5,16.66,16.66,0,0,1-5.55,5.4,13.22,13.22,0,0,1-6.63,1.82,12.83,12.83,0,0,1-8.31-2.87,18.47,18.47,0,0,1-5.55-8.12,34.66,34.66,0,0,1-2-12.15V525.24A34.59,34.59,0,0,1,657.27,513Z" transform="translate(0 0)"/><path class="cls-1" d="M745.74,520.17a23.17,23.17,0,0,0-24.62,0,22,22,0,0,0-7.81,10.32,44.32,44.32,0,0,0-2.69,16.29v11.4a45.26,45.26,0,0,0,2.69,16.5,22.11,22.11,0,0,0,7.81,10.42,23,23,0,0,0,24.62,0,22.29,22.29,0,0,0,7.81-10.35,44.52,44.52,0,0,0,2.69-16.36V546.78a44.32,44.32,0,0,0-2.69-16.29A22,22,0,0,0,745.74,520.17Zm-.37,38.22q0,8.16-3.12,12.68a10.87,10.87,0,0,1-17.64,0q-3.12-4.52-3.12-12.68V546.78q0-8.16,3.12-12.61A11,11,0,0,1,740,531.92a11.16,11.16,0,0,1,2.25,2.25q3.12,4.46,3.12,12.61Z" transform="translate(0 0)"/><path class="cls-1" d="M797.28,516.63a14,14,0,0,0-9.14,3.44,22.42,22.42,0,0,0-5.57,7.35v-9.78H771.69v70h10.88v-44.3q0-6.47,2.9-10.05a11.14,11.14,0,0,1,15.74-.61,13,13,0,0,1,1,1.08q3,4,3,11.47v42.43H816.1v-42.5q0-13.62-4.93-21.08A15.75,15.75,0,0,0,797.28,516.63Z" transform="translate(0 0)"/><path class="cls-1" d="M865.79,547.66a38.37,38.37,0,0,0-9.89-2,.87.87,0,0,0-.32-.06h-.32a3.51,3.51,0,0,0-.72-.07,3,3,0,0,1-.67-.07,60.12,60.12,0,0,1-6.82-.81,8,8,0,0,1-4-1.89,5.42,5.42,0,0,1-1.57-4.25q0-4.78,2.77-7.18t8.31-2.4a20.29,20.29,0,0,1,7.87,1.69,33.84,33.84,0,0,1,8.18,5.06l6.55-10a35.94,35.94,0,0,0-6.87-5,32.14,32.14,0,0,0-7.49-3,33.14,33.14,0,0,0-8.24-1,25.66,25.66,0,0,0-11.88,2.46,16,16,0,0,0-7.14,7.39,28.16,28.16,0,0,0-2.4,12.34q0,7.42,2.48,11.4a12.7,12.7,0,0,0,6.21,5.43,35.1,35.1,0,0,0,9.11,2h.85c.3.05.61.08.91.1h.91a67.25,67.25,0,0,1,7.35,1,8.93,8.93,0,0,1,4.37,2.26,6.73,6.73,0,0,1,1.76,5.06c0,3.38-1.07,5.9-3.23,7.59s-5.37,2.53-9.67,2.53a19.84,19.84,0,0,1-8.74-2.16,35.67,35.67,0,0,1-8.9-6.47l-6.45,10.05a32.62,32.62,0,0,0,6.88,6.07,29.08,29.08,0,0,0,8,3.64,33.53,33.53,0,0,0,9.19,1.22,29.57,29.57,0,0,0,12.92-2.5,16.57,16.57,0,0,0,7.71-7.45,27.29,27.29,0,0,0,2.55-12.52q0-8.3-2.77-12.68A13.66,13.66,0,0,0,865.79,547.66Z" transform="translate(0 0)"/><path class="cls-1" d="M901.57,497.27H890.7v20.37H885v12.41h5.7v39.4q0,9.18,3.12,13.86t9.83,4.69h6.29V574.91h-5.22a2.57,2.57,0,0,1-2.35-1.38,8,8,0,0,1-.8-3.94V530.05h8.37V517.64h-8.37Z" transform="translate(0 0)"/><path class="cls-1" d="M957,518a16.61,16.61,0,0,0-6.84-1.38,13.47,13.47,0,0,0-9,3.47,23.37,23.37,0,0,0-5.49,7.33v-9.79H924.86v70h10.87v-44.3q0-6.4,2.85-10a9.64,9.64,0,0,1,8-3.61,10.72,10.72,0,0,1,5.06,1.14,9.63,9.63,0,0,1,3.62,3.38l7.09-12.15A15.14,15.14,0,0,0,957,518Z" transform="translate(0 0)"/><path class="cls-1" d="M1004.8,561.84q0,6.6-2.93,10.18a10.07,10.07,0,0,1-8.26,3.58,9.76,9.76,0,0,1-8.34-4q-3-4-3-11.37V517.64H971.46v42.57q0,13.56,5,21a16,16,0,0,0,14.15,7.46,13.45,13.45,0,0,0,9.43-3.51,19.57,19.57,0,0,0,4.8-6.82v9.31h10.82v-70h-10.82Z" transform="translate(0 0)"/><path class="cls-1" d="M1044.88,534.17a11.64,11.64,0,0,1,9.75-4.45,12.94,12.94,0,0,1,6.56,1.82,17.09,17.09,0,0,1,5.48,5.19l7.84-8.9a21.47,21.47,0,0,0-5.07-6.07,21.74,21.74,0,0,0-6.84-3.82,25,25,0,0,0-8.13-1.31,23,23,0,0,0-12.92,3.54,22.16,22.16,0,0,0-8.19,10.29,42.21,42.21,0,0,0-2.82,16.26v11.53a43,43,0,0,0,2.82,16.46,22.35,22.35,0,0,0,8.19,10.39,22.79,22.79,0,0,0,12.92,3.58,24.88,24.88,0,0,0,8.07-1.29,21.68,21.68,0,0,0,6.85-3.74,22.15,22.15,0,0,0,5.12-6l-7.84-9.58a17.38,17.38,0,0,1-5.43,5.53,12.33,12.33,0,0,1-6.61,2q-6.35,0-9.78-4.52t-3.44-12.82V546.73Q1041.46,538.62,1044.88,534.17Z" transform="translate(0 0)"/><path class="cls-1" d="M1099.24,534.17c2.3-3,5.56-4.45,9.75-4.45a12.94,12.94,0,0,1,6.56,1.82,17.09,17.09,0,0,1,5.48,5.19l7.84-8.9a21.47,21.47,0,0,0-5.07-6.07,21.74,21.74,0,0,0-6.84-3.82,25,25,0,0,0-8.13-1.31,23,23,0,0,0-12.92,3.54,22.16,22.16,0,0,0-8.19,10.29,42.21,42.21,0,0,0-2.82,16.26v11.53a43,43,0,0,0,2.82,16.46,22.35,22.35,0,0,0,8.19,10.39,22.79,22.79,0,0,0,12.92,3.58,24.88,24.88,0,0,0,8.07-1.29,21.68,21.68,0,0,0,6.85-3.74,22.15,22.15,0,0,0,5.12-6l-7.84-9.58a17.38,17.38,0,0,1-5.43,5.53,12.33,12.33,0,0,1-6.61,2q-6.35,0-9.78-4.52t-3.44-12.82V546.73Q1095.77,538.62,1099.24,534.17Z" transform="translate(0 0)"/><rect class="cls-1" x="1140.86" y="489.57" width="10.87" height="13.76"/><rect class="cls-1" x="1140.86" y="517.64" width="10.87" height="70.02"/><polygon class="cls-1" points="1206.68 481.48 1198.84 473.25 1183.6 497.2 1190.42 504.14 1206.68 481.48"/><path class="cls-1" d="M1201.77,520.17a23.17,23.17,0,0,0-24.62,0,22,22,0,0,0-7.8,10.32,43.91,43.91,0,0,0-2.69,16.29v11.4a45,45,0,0,0,2.69,16.5,22.09,22.09,0,0,0,7.8,10.42,23,23,0,0,0,24.62,0,22.11,22.11,0,0,0,7.81-10.35,44.29,44.29,0,0,0,2.7-16.36V546.78a43.92,43.92,0,0,0-2.7-16.29A21.86,21.86,0,0,0,1201.77,520.17Zm-.37,38.22q0,8.16-3.11,12.68a10.88,10.88,0,0,1-15.19,2.46,10.64,10.64,0,0,1-2.46-2.46q-3.12-4.52-3.11-12.68V546.78q0-8.16,3.11-12.61a11,11,0,0,1,17.65,0q3.11,4.46,3.11,12.61Z" transform="translate(0 0)"/><path class="cls-1" d="M1267.24,524.08a15.74,15.74,0,0,0-13.93-7.45,14,14,0,0,0-9.14,3.44,22.56,22.56,0,0,0-5.57,7.35v-9.78h-10.87v70h10.87v-44.3q0-6.47,2.91-10.05a11.14,11.14,0,0,1,15.74-.61,13,13,0,0,1,1,1.08q3,4,3,11.47v42.43h10.87v-42.5Q1272.17,531.54,1267.24,524.08Z" transform="translate(0 0)"/><path class="cls-1" d="M0,340.11V455.24H1273.92V340.11Zm72.78,65.64h-48V390.48h48Zm117.44,0H142.17V390.48h48.05Zm117.45,0H259.62V390.48h48.05Zm117.44,0h-48V390.48h48Zm117.45,0h-48V390.48h48Zm117.44,0H612V390.48h48Zm117.45,0H729.4V390.48h48.06Zm117.44,0h-48V390.48h48Zm117.45,0H964.29V390.48h48.05Zm117.44,0h-48V390.48h48Zm117.45,0h-48V390.48h48Z" transform="translate(0 0)"/></svg>